#!OML:ASF H:\Terrain\Patient Classification 1\Walking\steve\steve.ASF
:FULLY-SPECIFIED
:DEGREES
1
root 6.89202 15.3647 -41.4081 6.19243 -2.68262 -2.5455
lowerback -0.410421 3.15592 4.66729
upperback -2.84697 4.308 2.00829
thorax -2.51532 2.06905 -0.609137
lowerneck -6.57096 -1.2127 -1.49601
upperneck 11.7498 -1.19229 -2.19844
head 4.59714 -0.779113 -0.501819
rclavicle -3.63403e-015 2.38542e-015
rhumerus -28.1969 -13.7078 -83.4196
rradius 29.0208
rwrist -0.980507
rhand -23.0209 -41.064
rfingers 7.12502
rthumb 3.42292 -71.0162
lclavicle -3.63403e-015 2.38542e-015
lhumerus -41.5817 0.041384 89.5415
lradius 20.0082
lwrist 8.78237
lhand -22.9959 -10.5719
lfingers 7.12502
lthumb 3.44702 19.38
rfemur -15.4031 1.46459 28.1426
rtibia 33.2349
rfoot -20.691 14.3905
rtoes 0.218297
lfemur -34.9035 8.21059 -18.7268
ltibia 60.7365
lfoot -9.73316 5.45259
ltoes -16.2571
2
root 6.90404 15.3776 -41.1821 6.27904 -3.02703 -2.75223
lowerback -0.7292 3.24273 4.94506
upperback -2.66575 4.39376 1.96312
thorax -2.1219 2.11563 -0.782424
lowerneck -6.52987 -1.14937 -1.39698
upperneck 11.4329 -1.12626 -2.1958
head 4.4925 -0.738552 -0.511256
rclavicle -8.41341e-015 -8.74653e-015
rhumerus -26.5778 -11.7354 -84.5019
rradius 30.4777
rwrist -2.69276
rhand -22.4999 -43.0423
rfingers 7.12502
rthumb 3.92606 -72.9858
lclavicle -8.41341e-015 -8.74653e-015
lhumerus -42.4216 1.1211 88.6705
lradius 19.1569
lwrist 7.43975
lhand -21.8427 -10.3217
lfingers 7.12502
lthumb 4.56067 19.6092
rfemur -14.2021 0.409445 28.2891
rtibia 32.474
rfoot -20.4297 15.5758
rtoes -3.30327
lfemur -35.7129 8.54865 -18.6171
ltibia 58.2645
lfoot -10.9659 5.42754
ltoes -18.3023
3
root 6.91756 15.3846 -40.9575 6.3719 -3.27194 -2.91626
lowerback -0.693988 3.37506 5.37821
upperback -2.73258 4.57304 1.69428
thorax -2.14859 2.19135 -1.29997
lowerneck -6.4493 -1.1287 -1.09522
upperneck 10.9561 -1.1675 -1.97193
head 4.80649 -0.724286 -0.548703
rclavicle 4.50372e-014 1.11319e-014
rhumerus -24.9434 -9.72069 -85.4338
rradius 32.2004
rwrist -1.70149
rhand -17.3434 -49.7905
rfingers 7.12502
rthumb 8.90398 -79.5826
lclavicle 4.50372e-014 1.11319e-014
lhumerus -43.5686 1.30308 87.9134
lradius 18.7652
lwrist 6.62105
lhand -21.002 -7.5619
lfingers 7.12502
lthumb 5.37238 22.35
rfemur -13.1662 -0.198188 28.3655
rtibia 32.0559
rfoot -20.1035 16.2394
rtoes -4.25677
lfemur -36.5655 8.8575 -18.6203
ltibia 55.7298
lfoot -12.0569 6.03442
ltoes -15.9346
4
root 6.93029 15.3609 -40.7399 6.471 -3.69994 -3.18282
lowerback -0.588507 3.60068 5.73845
upperback -2.76291 4.88203 1.51952
thorax -2.17756 2.3346 -1.68427
lowerneck -6.62559 -1.14155 -0.587278
upperneck 10.9911 -1.2202 -2.12742
head 4.85105 -0.738105 -0.69843
rclavicle -1.97717e-014 -1.74931e-014
rhumerus -22.6993 -6.36386 -86.4424
rradius 32.17
rwrist -4.4711
rhand -17.6578 -50.648
rfingers 7.12502
rthumb 8.60062 -80.4528
lclavicle -1.97717e-014 -1.74931e-014
lhumerus -44.6813 0.926176 87.6692
lradius 18.8848
lwrist 6.44694
lhand -21.6859 -5.0359
lfingers 7.12502
lthumb 4.71206 24.8917
rfemur -12.197 -0.540975 28.5345
rtibia 31.5843
rfoot -19.1839 17.224
rtoes -0.689047
lfemur -37.121 9.20586 -18.4595
ltibia 53.1107
lfoot -13.3744 6.11664
ltoes -12.0718
5
root 6.94201 15.3371 -40.5228 6.44291 -4.36321 -3.50762
lowerback -0.399629 3.77613 6.00416
upperback -2.65087 5.12777 1.56907
thorax -2.13346 2.45491 -1.78765
lowerneck -6.70013 -1.22909 -0.0805733
upperneck 11.2842 -1.29195 -2.96326
head 4.45835 -0.808648 -0.971781
rclavicle -4.8988e-014 -1.90833e-014
rhumerus -20.2861 -3.82044 -86.9586
rradius 31.8857
rwrist -6.40686
rhand -17.469 -50.1672
rfingers 7.12502
rthumb 8.78273 -79.9645
lclavicle -4.8988e-014 -1.90833e-014
lhumerus -45.7069 1.136 87.4818
lradius 18.807
lwrist 6.31401
lhand -22.0759 -5.97028
lfingers 7.12502
lthumb 4.3355 23.9653
rfemur -11.0686 -1.05705 28.6828
rtibia 31.0494
rfoot -18.8826 18.4162
rtoes -0.412517
lfemur -37.2097 9.56552 -18.1304
ltibia 50.3576
lfoot -14.0636 6.04478
ltoes -16.4195
6
root 6.95296 15.3366 -40.3025 6.48319 -4.8484 -3.68142
lowerback -0.368903 3.76693 6.15269
upperback -2.59513 5.11836 1.69438
thorax -2.09307 2.45027 -1.7407
lowerneck -5.5992 -1.13397 0.316966
upperneck 9.4171 -1.17979 -3.73457
head 4.06194 -0.744066 -1.36779
rclavicle 1.65488e-014 1.74931e-014
rhumerus -18.8894 -2.71584 -87.2073
rradius 33.0683
rwrist -6.98741
rhand -17.0394 -46.8704
rfingers 7.12502
rthumb 9.19733 -76.6499
lclavicle 1.65488e-014 1.74931e-014
lhumerus -46.8035 2.72916 86.4446
lradius 17.9931
lwrist 5.10354
lhand -24.3557 -12.6874
lfingers 7.12502
lthumb 2.13384 17.2817
rfemur -9.85623 -1.67006 28.624
rtibia 30.3201
rfoot -19.0208 19.2577
rtoes -1.98226
lfemur -37.4038 9.61396 -17.8706
ltibia 47.3979
lfoot -14.2439 7.68639
ltoes -32.1027
